HIERARCHY
ROOT Hips
{
	OFFSET 0.000000 89.005402 0.000000
	CHANNELS 6 Xposition Yposition Zposition Xrotation Yrotation Zrotation
	JOINT Spine
	{
		OFFSET 0.116900 10.681000 0.373400
		CHANNELS 3 Xrotation Yrotation Zrotation
		JOINT Spine1
		{
			OFFSET 0.000000 13.840401 0.053500
			CHANNELS 3 Xrotation Yrotation Zrotation
			JOINT Spine2
			{
				OFFSET 0.000000 14.712700 -0.366200
				CHANNELS 3 Xrotation Yrotation Zrotation
				JOINT Neck
				{
					OFFSET 0.000000 35.415497 -3.314200
					CHANNELS 3 Xrotation Yrotation Zrotation
					JOINT Head
					{
						OFFSET 0.000000 16.899200 1.218300
						CHANNELS 3 Xrotation Yrotation Zrotation
						JOINT HeadTop_End
						{
							OFFSET 0.000000 22.206207 2.192500
							CHANNELS 3 Xrotation Yrotation Zrotation
							End Site
							{
								OFFSET 0.000000 22.314178 0.000000
							}
						}
					}
				}
				JOINT LeftShoulder
				{
					OFFSET 12.896400 26.716293 -4.548400
					CHANNELS 3 Xrotation Yrotation Zrotation
					JOINT LeftArm
					{
						OFFSET 19.027000 -4.857010 -1.718400
						CHANNELS 3 Xrotation Yrotation Zrotation
						JOINT LeftForeArm
						{
							OFFSET 24.179897 0.000000 0.000000
							CHANNELS 3 Xrotation Yrotation Zrotation
							JOINT LeftHand
							{
								OFFSET 27.156403 0.000000 0.000000
								CHANNELS 3 Xrotation Yrotation Zrotation
								JOINT LeftHandIndex1
								{
									OFFSET 16.441200 0.000000 0.000000
									CHANNELS 3 Xrotation Yrotation Zrotation
									JOINT LeftHandIndex2
									{
										OFFSET 4.821899 0.000000 0.000000
										CHANNELS 3 Xrotation Yrotation Zrotation
										JOINT LeftHandIndex3
										{
											OFFSET 6.386497 0.000000 0.000000
											CHANNELS 3 Xrotation Yrotation Zrotation
											JOINT LeftHandIndex4
											{
												OFFSET 5.188988 0.000000 0.000000
												CHANNELS 3 Xrotation Yrotation Zrotation
												End Site
												{
													OFFSET -0.178703 5.185913 0.000177
												}
											}
										}
									}
								}
								JOINT LeftHandThumb1
								{
									OFFSET 6.534897 -5.032593 5.900300
									CHANNELS 3 Xrotation Yrotation Zrotation
									JOINT LeftHandThumb2
									{
										OFFSET 3.818176 -2.204422 2.204423
										CHANNELS 3 Xrotation Yrotation Zrotation
										JOINT LeftHandThumb3
										{
											OFFSET 3.252098 -1.877594 1.877601
											CHANNELS 3 Xrotation Yrotation Zrotation
											JOINT LeftHandThumb4
											{
												OFFSET 5.251778 -3.032120 3.032117
												CHANNELS 3 Xrotation Yrotation Zrotation
												End Site
												{
													OFFSET 0.000023 6.780014 0.000000
												}
											}
										}
									}
								}
							}
						}
					}
				}
				JOINT RightShoulder
				{
					OFFSET -12.896300 26.716293 -4.548400
					CHANNELS 3 Xrotation Yrotation Zrotation
					JOINT RightArm
					{
						OFFSET -19.027000 -4.857010 -1.718400
						CHANNELS 3 Xrotation Yrotation Zrotation
						JOINT RightForeArm
						{
							OFFSET -24.179897 0.000000 0.000000
							CHANNELS 3 Xrotation Yrotation Zrotation
							JOINT RightHand
							{
								OFFSET -27.156403 0.000000 0.000000
								CHANNELS 3 Xrotation Yrotation Zrotation
								JOINT RightHandThumb1
								{
									OFFSET -6.591202 -4.852203 5.988100
									CHANNELS 3 Xrotation Yrotation Zrotation
									JOINT RightHandThumb2
									{
										OFFSET -3.818176 -2.204422 2.204423
										CHANNELS 3 Xrotation Yrotation Zrotation
										JOINT RightHandThumb3
										{
											OFFSET -3.252098 -1.877594 1.877601
											CHANNELS 3 Xrotation Yrotation Zrotation
											JOINT RightHandThumb4
											{
												OFFSET -5.251778 -3.032120 3.032117
												CHANNELS 3 Xrotation Yrotation Zrotation
												End Site
												{
													OFFSET -0.000023 6.780014 0.000000
												}
											}
										}
									}
								}
								JOINT RightHandIndex1
								{
									OFFSET -16.029404 0.000000 0.000000
									CHANNELS 3 Xrotation Yrotation Zrotation
									JOINT RightHandIndex2
									{
										OFFSET -5.213303 0.000000 0.000000
										CHANNELS 3 Xrotation Yrotation Zrotation
										JOINT RightHandIndex3
										{
											OFFSET -6.386528 0.000000 0.000000
											CHANNELS 3 Xrotation Yrotation Zrotation
											JOINT RightHandIndex4
											{
												OFFSET -5.189026 0.000000 0.000000
												CHANNELS 3 Xrotation Yrotation Zrotation
												End Site
												{
													OFFSET 0.236702 5.183624 0.001972
												}
											}
										}
									}
								}
							}
						}
					}
				}
			}
		}
	}
	JOINT LeftUpLeg
	{
		OFFSET 14.073000 -7.904099 -1.463000
		CHANNELS 3 Xrotation Yrotation Zrotation
		JOINT LeftLeg
		{
			OFFSET -0.109806 -34.073280 4.093200
			CHANNELS 3 Xrotation Yrotation Zrotation
			JOINT LeftFoot
			{
				OFFSET 0.109806 -29.899420 -6.319000
				CHANNELS 3 Xrotation Yrotation Zrotation
				JOINT LeftToeBase
				{
					OFFSET 1.551100 -14.988700 20.535801
					CHANNELS 3 Xrotation Yrotation Zrotation
					JOINT LeftToe_End
					{
						OFFSET 0.221200 0.570800 13.248301
						CHANNELS 3 Xrotation Yrotation Zrotation
						End Site
						{
							OFFSET 0.000000 13.262435 0.000000
						}
					}
				}
			}
		}
	}
	JOINT RightUpLeg
	{
		OFFSET -13.839300 -7.904099 -1.463000
		CHANNELS 3 Xrotation Yrotation Zrotation
		JOINT RightLeg
		{
			OFFSET 0.109694 -34.073219 4.093300
			CHANNELS 3 Xrotation Yrotation Zrotation
			JOINT RightFoot
			{
				OFFSET -0.109694 -29.899384 -6.319200
				CHANNELS 3 Xrotation Yrotation Zrotation
				JOINT RightToeBase
				{
					OFFSET -1.551100 -14.988700 20.535801
					CHANNELS 3 Xrotation Yrotation Zrotation
					JOINT RightToe_End
					{
						OFFSET -0.221200 0.570900 13.248299
						CHANNELS 3 Xrotation Yrotation Zrotation
						End Site
						{
							OFFSET 0.000000 13.262440 0.000000
						}
					}
				}
			}
		}
	}
}
MOTION
Frames: 8
Frame Time: 0.033333
-2.793963 44.293846 193.260941 16.066891 -25.902688 6.905915 10.233794 0.852967 -1.682610 18.993407 4.544559 -5.251938 18.884293 4.491373 -5.616616 -19.377190 3.477351 -1.955064 -18.732564 15.574623 2.593564 0.000002 0.000000 0.000001 0.258194 -1.400706 13.440759 -79.705979 -25.725896 -72.706899 -0.000005 -10.574566 -0.000020 -5.143020 -10.144924 11.419129 -0.000004 0.000004 -0.000001 0.000009 0.000008 -0.000024 -0.000011 0.000006 0.000002 -0.000002 0.000001 -0.000000 -1.540042 3.690189 6.142355 3.939056 7.948710 0.746804 -0.579442 1.575001 2.538714 -0.000002 -0.000000 0.000001 0.775300 1.180704 -1.318762 -79.135747 35.115741 73.913882 -0.000002 9.704925 0.000013 -2.306780 33.338109 3.058713 -1.849247 -3.581789 -6.586136 4.637191 -8.634135 -0.225406 -1.273738 0.137307 -2.094870 -0.000000 -0.000001 -0.000001 -0.000004 -0.000002 -0.000002 0.000006 -0.000002 0.000006 0.000009 -0.000000 0.000005 -0.000000 -0.000002 0.000000 -106.181089 -16.419937 22.050496 104.431352 -4.799981 -2.722443 -7.279154 1.906212 -10.971579 -1.692077 0.000000 -0.000000 -0.000000 0.000000 0.000000 -77.996833 3.719426 -11.531069 140.431312 -12.823413 -0.096479 -50.829721 -13.592820 5.436508 -34.055965 0.000004 -0.000003 -0.000000 -0.000000 0.000001 
-3.001285 42.575432 194.701950 17.584897 -24.820286 7.818711 11.225624 0.870344 -1.705511 19.902633 5.076632 -6.441090 19.793321 4.850665 -6.912688 -20.308398 3.631248 -2.886382 -19.806859 15.063485 1.827486 0.000001 -0.000001 -0.000000 0.063847 -1.780767 18.144258 -89.542660 -29.386923 -80.300676 -0.000004 -20.906688 -0.000008 -9.248999 -7.827709 10.750538 -0.000001 0.000004 0.000001 0.000006 0.000006 -0.000022 -0.000014 0.000004 0.000001 0.000005 -0.000001 0.000000 -1.540037 3.690188 6.142357 3.939052 7.948707 0.746804 -0.579440 1.575007 2.538712 0.000004 -0.000000 0.000002 0.790785 0.727101 -2.928007 -93.645172 40.622584 84.878597 -0.000005 7.523280 0.000003 -7.834001 36.579047 8.414304 -1.849245 -3.581792 -6.586135 4.637189 -8.634130 -0.225408 -1.273741 0.137315 -2.094873 0.000002 -0.000004 0.000002 -0.000001 -0.000002 -0.000000 0.000002 -0.000005 0.000003 0.000008 -0.000003 0.000004 -0.000000 0.000001 -0.000001 -109.890292 -17.048567 20.549524 107.907597 -5.196483 -2.396013 -8.638610 2.135552 -11.537036 -1.083321 -0.000003 0.000001 -0.000000 0.000000 0.000000 -78.801532 4.073851 -12.823516 144.515943 -13.312150 -0.601369 -52.498685 -15.254655 6.247994 -36.447788 0.000002 0.000006 -0.000000 0.000001 0.000003 
-2.922594 41.995735 195.527084 19.229344 -24.130186 8.355539 11.869814 1.092552 -2.064572 20.387698 5.605009 -7.097519 20.263016 5.315484 -7.645255 -21.933489 3.244579 -1.986859 -20.617710 14.148518 1.205496 0.000001 0.000000 -0.000000 -0.116244 -2.216761 24.760354 -95.679134 -29.470354 -84.268285 -0.000018 -38.277364 -0.000010 -14.281048 -1.114972 10.463496 -0.000003 0.000003 -0.000001 0.000003 0.000003 -0.000021 -0.000013 0.000007 0.000002 -0.000000 -0.000000 -0.000001 -1.540042 3.690188 6.142355 3.939055 7.948707 0.746804 -0.579448 1.575001 2.538714 -0.000003 0.000003 -0.000002 0.311169 -1.395635 -3.222910 -109.030644 43.208958 95.526657 -0.000004 7.548123 0.000009 -16.157683 36.282112 15.667716 -1.849247 -3.581790 -6.586141 4.637190 -8.634132 -0.225406 -1.273741 0.137311 -2.094872 0.000003 -0.000002 0.000002 -0.000003 -0.000002 -0.000004 0.000001 -0.000005 0.000001 0.000012 0.000000 0.000003 -0.000001 -0.000001 0.000001 -112.296916 -17.144912 19.335408 109.270329 -5.206771 -2.017951 -9.451192 2.235687 -11.833486 -0.328383 0.000002 0.000000 0.000000 0.000000 -0.000000 -75.645172 4.028724 -13.628101 145.378131 -12.872463 -0.584892 -57.471705 -17.071161 7.604619 -35.968162 0.000000 0.000001 0.000000 -0.000001 -0.000003 
-2.977107 42.380943 196.098984 20.917821 -23.595467 8.846248 11.802937 1.306086 -2.446347 20.443019 6.015882 -7.414718 20.311017 5.707793 -7.987027 -22.353792 2.672502 -0.500148 -21.420114 13.290000 0.778227 0.000001 0.000000 -0.000000 -0.221954 -2.247007 29.864975 -101.456265 -28.166932 -86.680667 -0.000006 -55.186822 -0.000003 -18.468466 6.174527 10.774153 -0.000004 0.000004 -0.000001 0.000007 0.000006 -0.000022 -0.000014 0.000005 -0.000001 -0.000000 -0.000001 -0.000004 -1.540040 3.690190 6.142359 3.939053 7.948706 0.746806 -0.579446 1.575003 2.538715 -0.000001 -0.000002 0.000001 -0.241180 -3.755384 -4.041864 -118.354051 41.910314 100.865946 0.000001 13.952043 -0.000019 -23.339139 29.604577 20.440277 -1.849248 -3.581790 -6.586143 4.637190 -8.634135 -0.225406 -1.273740 0.137312 -2.094870 -0.000001 0.000002 0.000002 -0.000003 -0.000003 -0.000005 0.000003 -0.000005 -0.000001 0.000011 -0.000000 0.000008 0.000001 -0.000001 -0.000003 -113.025403 -16.709243 18.713533 109.094445 -5.068306 -1.912657 -10.403707 2.341163 -11.811689 -0.223198 0.000003 0.000004 -0.000000 -0.000000 -0.000000 -72.785276 6.685741 -16.402033 144.191659 -8.704433 0.268730 -60.065169 -16.176731 9.221361 -35.584862 0.000005 -0.000003 -0.000002 -0.000001 -0.000003 
-3.182764 43.516800 196.693512 22.335632 -22.979596 9.054585 11.402368 1.345324 -2.721653 20.096428 6.240402 -7.524682 19.976140 5.918751 -8.068958 -21.580573 2.391371 0.089981 -22.404434 12.824440 0.324558 0.000001 0.000002 0.000000 -0.546413 -1.258058 31.737246 -107.394152 -26.688192 -89.492444 -0.000112 -68.737180 -0.000095 -21.159335 11.858981 10.617980 -0.000004 0.000002 -0.000005 0.000007 0.000006 -0.000021 -0.000013 0.000005 -0.000000 -0.000001 -0.000000 -0.000005 -1.540040 3.690187 6.142353 3.939055 7.948707 0.746802 -0.579445 1.575003 2.538716 -0.000001 0.000000 0.000004 -0.774706 -5.631628 -6.804148 -120.813738 38.290402 101.232494 0.000007 25.168960 -0.000009 -28.138102 21.662993 20.454902 -1.849247 -3.581791 -6.586139 4.637192 -8.634133 -0.225407 -1.273741 0.137313 -2.094872 -0.000001 -0.000002 -0.000003 -0.000002 -0.000003 -0.000003 0.000003 -0.000005 0.000005 0.000011 -0.000001 0.000006 0.000000 -0.000000 0.000003 -112.105377 -15.996776 18.455248 107.930834 -5.125410 -1.958219 -11.832140 2.465370 -11.612838 -0.948151 -0.000001 0.000004 0.000000 -0.000001 -0.000000 -72.522307 8.245326 -17.932129 141.811406 -6.067172 0.813372 -57.943275 -15.082734 10.569762 -36.169728 -0.000004 -0.000010 -0.000000 0.000003 0.000000 
-3.454138 45.482719 197.250885 23.097099 -22.463936 8.832340 10.902404 1.342295 -2.884708 19.426205 6.275132 -7.399427 19.328619 5.955705 -7.881651 -20.836161 2.435717 -0.253533 -23.277362 12.658110 -0.152578 -0.000002 -0.000000 0.000001 -1.038618 0.356184 31.632843 -111.124774 -25.074456 -92.230756 0.000563 -80.294946 0.000580 -22.205242 15.932682 9.002550 -0.000004 0.000003 0.000005 0.000006 0.000006 -0.000023 -0.000013 0.000005 0.000004 0.000000 0.000000 0.000004 -1.540041 3.690188 6.142357 3.939058 7.948708 0.746802 -0.579444 1.575005 2.538711 -0.000000 -0.000000 -0.000004 -1.343038 -6.964052 -10.610132 -120.303441 33.817462 100.584979 -0.000017 37.423392 0.000020 -31.147927 18.926307 17.514678 -1.849246 -3.581791 -6.586139 4.637190 -8.634132 -0.225411 -1.273741 0.137310 -2.094861 0.000000 -0.000000 0.000000 -0.000002 -0.000002 -0.000004 0.000004 -0.000007 0.000005 0.000011 -0.000001 0.000009 -0.000001 -0.000000 0.000003 -109.210784 -14.986629 18.386680 105.668900 -5.149620 -2.036323 -13.579469 2.610224 -11.314470 -2.195135 0.000001 0.000001 0.000000 -0.000000 0.000000 -71.573320 9.059605 -17.969009 137.737226 -4.703400 1.136540 -54.307056 -14.672414 12.676631 -36.537964 -0.000002 0.000006 -0.000000 0.000001 0.000000 
-3.790943 48.131454 197.753067 23.401620 -21.856196 8.388972 10.288846 1.361434 -2.996407 18.541597 6.167773 -7.062379 18.468751 5.873568 -7.469153 -20.737945 2.523585 -0.513452 -23.567254 12.594252 -0.432359 0.000001 0.000000 -0.000000 -1.351756 1.411284 31.371803 -111.469930 -23.661788 -93.723016 -0.038151 -90.663863 -0.038271 -21.416007 18.604792 5.383376 -0.000004 0.000003 0.000002 0.000006 0.000005 -0.000026 -0.000014 0.000006 0.000003 -0.000000 0.000000 -0.000001 -1.540041 3.690188 6.142352 3.939056 7.948708 0.746809 -0.579445 1.575006 2.538716 -0.000001 0.000001 0.000004 -1.715471 -7.490464 -13.312530 -119.079362 30.107819 100.378680 0.000004 48.853266 -0.000009 -31.366425 22.211283 13.761874 -1.849246 -3.581792 -6.586135 4.637190 -8.634131 -0.225406 -1.273741 0.137311 -2.094868 0.000000 0.000001 -0.000004 -0.000002 -0.000002 -0.000001 0.000005 -0.000006 0.000004 0.000010 -0.000001 0.000001 -0.000000 -0.000001 0.000001 -105.695811 -13.434396 17.499544 102.736741 -3.844250 -1.868709 -14.947420 2.349417 -9.808602 -3.507634 0.000002 0.000003 0.000000 -0.000000 -0.000000 -68.761598 10.509902 -17.662690 131.835014 -3.184018 1.424536 -50.427755 -14.119135 16.438438 -36.176404 -0.000003 0.000002 -0.000001 0.000001 0.000001 
-4.085701 51.262283 198.213593 23.173025 -21.145741 7.972583 9.627921 1.368518 -3.141500 17.581119 5.991334 -6.645815 17.533625 5.733525 -6.972496 -21.012490 2.465443 -0.004670 -23.162145 12.622646 -0.386584 -0.000000 0.000001 0.000000 -1.304185 1.231993 31.363214 -109.658585 -23.227556 -93.912936 0.000757 -98.938145 0.000771 -19.015370 19.726216 0.140322 -0.000003 0.000003 0.000003 0.000005 0.000004 -0.000017 -0.000013 0.000004 0.000002 -0.000000 0.000002 0.000000 -1.540041 3.690188 6.142359 3.939057 7.948709 0.746807 -0.579445 1.575004 2.538717 -0.000001 0.000000 0.000001 -1.605226 -6.825732 -13.864931 -117.131679 28.124559 99.656203 0.000044 59.216046 -0.000044 -28.560137 27.226440 9.875966 -1.849245 -3.581795 -6.586137 4.637193 -8.634131 -0.225407 -1.273742 0.137313 -2.094875 -0.000001 0.000000 -0.000002 -0.000002 -0.000006 -0.000002 0.000007 -0.000005 0.000007 0.000008 0.000001 0.000008 -0.000002 -0.000002 0.000001 -101.609384 -11.923329 16.347405 98.691760 -2.660637 -1.632392 -14.262785 2.127349 -9.144484 -4.998495 0.000001 0.000000 0.000000 -0.000000 -0.000000 -65.549100 11.224630 -16.679573 124.963379 -3.090668 1.278201 -46.190548 -13.589081 20.080358 -35.214215 -0.000000 0.000001 0.000001 -0.000002 -0.000001 
